<svg width="256" height="256" viewBox="0 0 256 256" fill="none" xmlns="http://www.w3.org/2000/svg">
<g clip-path="url(#clip0_2877_59951)">
<rect width="256" height="256" rx="54" fill="white"/>
<rect width="256" height="256" rx="54" fill="#0A5CFF"/>
<path fill-rule="evenodd" clip-rule="evenodd" d="M194.549 129.21L194.386 128.037C192.122 111.852 189.943 99.5266 187.172 90.1211C184.402 80.7174 181.075 74.3635 176.603 70.012C172.152 65.6805 166.431 63.2047 158.607 61.8204C150.75 60.4304 140.89 60.1599 128.24 60.1599C115.57 60.1599 105.694 60.4289 97.8247 61.8159C89.9879 63.1971 84.2601 65.6685 79.8044 69.9933C75.3284 74.3378 72.0012 80.6824 69.2322 90.0744C66.4626 99.4685 64.2874 111.78 62.0303 127.949C58.0893 156.15 60.3521 172.039 68.9313 181.899C74.0746 187.807 81.3356 191.412 91.1308 193.533C100.947 195.658 113.189 196.267 128.168 196.267C143.175 196.267 155.439 195.656 165.27 193.528C175.08 191.404 182.349 187.795 187.492 181.884C195.944 172.177 198.262 156.624 194.555 129.21H194.549ZM75.8627 175.873C72.3912 171.889 70.3882 166.212 69.6523 158.605C68.9161 150.996 69.4355 141.326 71.1283 129.215C73.1763 114.551 74.8908 103.469 77.019 95.1281C79.1446 86.7975 81.7275 81.0061 85.6412 77.0762C89.5895 73.1114 94.7247 71.2051 101.567 70.2673C108.351 69.3374 117.01 69.3374 128.142 69.3374H128.354C139.463 69.3374 148.106 69.3374 154.878 70.2689C161.708 71.2084 166.835 73.1182 170.778 77.0895C174.686 81.0253 177.267 86.8251 179.394 95.1686C181.523 103.522 183.241 114.622 185.295 129.31C186.984 141.394 187.502 151.04 186.767 158.631C186.032 166.22 184.032 171.885 180.569 175.864C176.369 180.696 169.639 183.462 160.907 185.05C152.153 186.643 141.155 187.089 128.176 187.089C115.221 187.089 104.243 186.641 95.5028 185.048C86.7842 183.46 80.0631 180.696 75.8627 175.873ZM146.831 84.4323C145.729 84.4323 144.648 84.9055 143.833 85.7884C143.015 86.6749 142.538 87.8991 142.538 89.1961C142.538 93.3137 141.03 97.2825 138.314 100.225C135.594 103.171 131.882 104.848 127.986 104.848C124.089 104.848 120.377 103.171 117.657 100.225C114.941 97.2825 113.433 93.3137 113.433 89.1961C113.433 87.8991 112.956 86.6749 112.138 85.7884C111.323 84.9055 110.242 84.4323 109.14 84.4323C108.038 84.4323 106.957 84.9055 106.142 85.7884C105.324 86.6749 104.847 87.8991 104.847 89.1961C104.847 95.9078 107.309 102.325 111.662 107.04C116.011 111.752 121.886 114.376 127.986 114.376C134.085 114.376 139.96 111.752 144.309 107.04C148.662 102.325 151.124 95.9078 151.124 89.1961C151.124 87.8991 150.647 86.6749 149.829 85.7884C149.014 84.9055 147.933 84.4323 146.831 84.4323Z" fill="white"/>
</g>
<defs>
<clipPath id="clip0_2877_59951">
<rect width="256" height="256" rx="54" fill="white"/>
</clipPath>
</defs>
</svg>
